<svg width="32" height="32" viewBox="0 0 32 32" fill="none" xmlns="http://www.w3.org/2000/svg">
<path fill-rule="evenodd" clip-rule="evenodd" d="M0 16C0 7.16002 7.16002 0 16 0C24.84 0 32 7.16002 31.9999 16C31.9999 24.832 24.8399 31.9999 16 31.9999C7.16002 31.9999 0 24.832 0 16ZM6.39997 25.6L19.504 19.504L25.6 6.39997L12.496 12.496L6.39997 25.6ZM17.76 16C17.76 16.968 16.9759 17.76 16 17.76C15.032 17.76 14.2399 16.968 14.2399 16C14.2399 15.0319 15.0319 14.2399 16 14.2399C16.976 14.2399 17.76 15.0319 17.76 16Z" fill="#835AFD"/>
</svg>
